<?xml version="1.0" standalone="no"?>
<!DOCTYPE svg PUBLIC "-//W3C//DTD SVG 20010904//EN"
 "http://www.w3.org/TR/2001/REC-SVG-20010904/DTD/svg10.dtd">
<svg version="1.0" xmlns="http://www.w3.org/2000/svg"
 width="576.000000pt" height="225.000000pt" viewBox="0 0 576.000000 225.000000"
 preserveAspectRatio="xMidYMid meet">

<g transform="translate(0.000000,225.000000) scale(0.100000,-0.100000)"
fill="#000000" stroke="none">
<path d="M374 1893 c5 -16 368 -1635 383 -1705 l6 -28 278 0 278 0 9 33 c5 17
65 260 133 539 78 320 127 501 131 490 6 -13 207 -900 235 -1034 l6 -28 316 0
316 0 119 535 c66 295 123 532 126 528 4 -5 65 -245 136 -536 l128 -527 470 2
469 3 101 148 100 147 426 -2 425 -3 6 -105 c4 -58 7 -124 8 -147 l1 -43 206
0 205 0 -6 68 c-8 94 -105 1610 -105 1650 l0 32 -293 0 -294 0 -558 -795
c-307 -437 -560 -794 -561 -792 -3 2 343 1553 351 1575 4 10 -39 12 -207 10
l-212 -3 -137 -650 c-76 -357 -139 -651 -139 -652 0 -2 -8 -3 -19 -3 -22 0 -4
-64 -206 728 l-150 582 -209 -2 -209 -3 -138 -648 c-75 -357 -140 -651 -143
-655 -4 -3 -10 -1 -15 4 -4 5 -67 290 -140 634 -73 344 -135 635 -138 648 -5
22 -6 22 -214 22 l-208 0 -9 -32 c-5 -18 -80 -313 -168 -656 -145 -570 -160
-623 -178 -620 -18 3 -34 70 -158 648 -75 355 -138 648 -138 653 0 4 -95 7
-211 7 -196 0 -210 -1 -205 -17z m4540 -395 c7 -33 38 -719 33 -724 -2 -2
-141 -3 -309 -2 l-304 3 218 315 c120 173 236 341 258 373 34 47 46 57 70 57
23 0 31 -5 34 -22z"/>
</g>
</svg>
